<?xml version="1.0" encoding="UTF-8" standalone="no"?>
<!-- Uploaded to: SVG Repo, www.svgrepo.com, Generator: SVG Repo Mixer Tools -->

<svg
   width="800"
   height="800"
   viewBox="0 0 73 73"
   version="1.1"
   id="svg1"
   sodipodi:docname="Angular_R.svg"
   xml:space="preserve"
   xmlns:inkscape="http://www.inkscape.org/namespaces/inkscape"
   xmlns:sodipodi="http://sodipodi.sourceforge.net/DTD/sodipodi-0.dtd"
   xmlns="http://www.w3.org/2000/svg"
   xmlns:svg="http://www.w3.org/2000/svg"><sodipodi:namedview
     id="namedview1"
     pagecolor="#ffffff"
     bordercolor="#000000"
     borderopacity="0.25"
     inkscape:showpageshadow="2"
     inkscape:pageopacity="0.0"
     inkscape:pagecheckerboard="0"
     inkscape:deskcolor="#d1d1d1"
     inkscape:zoom="0.295"
     inkscape:cx="400"
     inkscape:cy="400"
     inkscape:window-width="1640"
     inkscape:window-height="1097"
     inkscape:window-x="0"
     inkscape:window-y="44"
     inkscape:window-maximized="0"
     inkscape:current-layer="svg1" /><title
     id="title1">frameworks-and-libraries/angular</title><desc
     id="desc1">Created with Sketch.</desc><defs
     id="defs1" /><g
     id="frameworks-and-libraries/angular"
     stroke="none"
     stroke-width="1"
     fill="none"
     fill-rule="evenodd"><g
       id="container"
       transform="translate(2,2)"
       fill="#ffffff"
       fill-rule="nonzero"
       stroke="#78011e"
       stroke-width="2"><rect
         id="mask"
         x="-1"
         y="-1"
         width="71"
         height="71"
         rx="14"
         style="fill:none;fill-opacity:1;stroke:#d40b02;stroke-opacity:0.77381" /></g></g><g
     fill="none"
     fill-rule="evenodd"
     transform="matrix(2.1845869,0,0,2.1845869,19.023305,10.284957)"
     id="g4"><circle
       cx="12"
       cy="12"
       r="4"
       fill="#19bcfe"
       id="circle1" /><path
       fill="#09cf83"
       d="m 4,24 c 2.209139,0 4,-1.790861 4,-4 0,-0.603054 0,-1.936387 0,-4 -1.7969612,0 -3.1302946,0 -4,0 -2.209139,0 -4,1.790861 -4,4 0,2.209139 1.790861,4 4,4 z"
       id="path1" /><path
       fill="#a259ff"
       d="m 4,16 c 0.7363797,0 2.069713,0 4,0 V 8 C 6.069713,8 4.7363797,8 4,8 1.790861,8 0,9.790861 0,12 c 0,2.209139 1.790861,4 4,4 z"
       id="path2" /><path
       fill="#f24e1e"
       d="M 4,8 C 4.7363797,8 6.069713,8 8,8 V 0 C 6.069713,0 4.7363797,0 4,0 1.790861,0 0,1.790861 0,4 0,6.209139 1.790861,8 4,8 Z"
       id="path3" /><path
       fill="#ff7262"
       d="M 12,8 H 8 V 8 0 h 4 v 0 c 2.209139,0 4,1.790861 4,4 0,2.209139 -1.790861,4 -4,4 z"
       id="path4" /></g></svg>
