<?xml version="1.0" encoding="UTF-8" standalone="no"?>
<!-- Uploaded to: SVG Repo, www.svgrepo.com, Generator: SVG Repo Mixer Tools -->

<svg
   width="800"
   height="800"
   viewBox="0 0 73 73"
   version="1.1"
   id="svg15"
   sodipodi:docname="NodeJS_R.svg"
   xml:space="preserve"
   inkscape:export-filename="Windows_R.svg"
   inkscape:export-xdpi="96"
   inkscape:export-ydpi="96"
   xmlns:inkscape="http://www.inkscape.org/namespaces/inkscape"
   xmlns:sodipodi="http://sodipodi.sourceforge.net/DTD/sodipodi-0.dtd"
   xmlns="http://www.w3.org/2000/svg"
   xmlns:svg="http://www.w3.org/2000/svg"><sodipodi:namedview
     id="namedview15"
     pagecolor="#ffffff"
     bordercolor="#000000"
     borderopacity="0.25"
     inkscape:showpageshadow="2"
     inkscape:pageopacity="0.0"
     inkscape:pagecheckerboard="0"
     inkscape:deskcolor="#d1d1d1"
     inkscape:zoom="0.295"
     inkscape:cx="400"
     inkscape:cy="400"
     inkscape:window-width="1800"
     inkscape:window-height="1097"
     inkscape:window-x="0"
     inkscape:window-y="44"
     inkscape:window-maximized="1"
     inkscape:current-layer="svg15" /><title
     id="title1">build-tools/nodejs</title><desc
     id="desc1">Created with Sketch.</desc><defs
     id="defs11"><linearGradient
       x1="9.6652003"
       y1="1.2280669"
       x2="3.6241815"
       y2="12.061319"
       id="linearGradient-1"
       gradientTransform="scale(0.93729409,1.066901)"
       gradientUnits="userSpaceOnUse"><stop
         stop-color="#3E863D"
         offset="30%"
         id="stop1" /><stop
         stop-color="#55934F"
         offset="50%"
         id="stop2" /><stop
         stop-color="#5AAD45"
         offset="80%"
         id="stop3" /></linearGradient><linearGradient
       x1="0.67242621"
       y1="10.519254"
       x2="12.906682"
       y2="2.7584284"
       id="linearGradient-2"
       gradientTransform="scale(0.92589449,1.0800367)"
       gradientUnits="userSpaceOnUse"><stop
         stop-color="#3E863D"
         offset="57%"
         id="stop4" /><stop
         stop-color="#619857"
         offset="72%"
         id="stop5" /><stop
         stop-color="#76AC64"
         offset="100%"
         id="stop6" /></linearGradient><linearGradient
       x1="0.38078645"
       y1="6.5472992"
       x2="13.473202"
       y2="6.5472992"
       id="linearGradient-3"
       gradientTransform="scale(0.92390192,1.082366)"
       gradientUnits="userSpaceOnUse"><stop
         stop-color="#6BBF47"
         offset="16%"
         id="stop7" /><stop
         stop-color="#79B461"
         offset="38%"
         id="stop8" /><stop
         stop-color="#75AC64"
         offset="47%"
         id="stop9" /><stop
         stop-color="#659E5A"
         offset="70%"
         id="stop10" /><stop
         stop-color="#3E863D"
         offset="90%"
         id="stop11" /></linearGradient></defs><g
     id="build-tools/nodejs"
     stroke="none"
     stroke-width="1"
     fill="none"
     fill-rule="evenodd"><g
       id="container"
       transform="translate(2,2)"><rect
         id="mask"
         stroke="#000000"
         stroke-width="2"
         fill="#ffffff"
         fill-rule="nonzero"
         x="-1"
         y="-1"
         width="71"
         height="71"
         rx="14" /><g
         id="Node.js_logo-(1)"
         transform="translate(7,23)"
         style="display:none"><path
           d="m 54.81535,7.9051016 h 0.16939 c 0.139052,0 0.165599,-0.097336 0.165599,-0.1542212 0,-0.1491648 -0.102393,-0.1491648 -0.159278,-0.1491648 H 54.816614 Z M 54.6093,7.4272686 h 0.37544 c 0.12894,0 0.381761,0 0.381761,0.2882167 0,0.2009933 -0.128939,0.2427088 -0.20605,0.267991 0.150429,0.010113 0.160542,0.1087133 0.180768,0.2477652 0.01011,0.087224 0.02655,0.2376524 0.05688,0.2882167 h -0.231332 c -0.0063,-0.050564 -0.04172,-0.3286681 -0.04172,-0.3438374 -0.01517,-0.061941 -0.03666,-0.09228 -0.113769,-0.09228 H 54.820406 V 8.5207224 H 54.6093 Z m -0.451286,0.5435666 c 0,0.4525508 0.365327,0.8191422 0.814085,0.8191422 0.452551,0 0.817878,-0.374176 0.817878,-0.8191422 0,-0.4538149 -0.370383,-0.8140858 -0.819142,-0.8140858 -0.442438,0 -0.814086,0.3552145 -0.814086,0.8128217 z m 1.788713,0.00253 c 0,0.535982 -0.438646,0.9733635 -0.973364,0.9733635 C 54.442438,8.9467269 54,8.5144018 54,7.9733634 54,7.4222122 54.452551,7 54.973363,7 c 0.524605,0 0.9721,0.4234763 0.9721,0.9733634 z"
           id="Shape"
           fill="#689f63"
           fill-rule="nonzero" /><path
           d="m 12.000939,11.446501 c 0,-0.232596 -0.122619,-0.44623 -0.323359,-0.561896 L 6.3233228,7.8039729 C 6.232939,7.7508804 6.131684,7.72307 6.0290384,7.7192777 H 5.9736704 C 5.8710248,7.72307 5.7697697,7.7508804 5.6778691,7.8039729 L 0.32386456,10.884605 C 0.12438826,11.000903 0,11.214537 0,11.447133 l 0.01175621,8.297607 c 0,0.115034 0.05941309,0.222483 0.16054176,0.279368 0.0986004,0.06068 0.22248307,0.06068 0.32108352,0 L 3.6764063,18.201264 C 3.8773996,18.081679 4.0000181,17.87032 4.0000181,17.64 v -3.876388 c 0,-0.231332 0.1226185,-0.444966 0.3229796,-0.56 l 1.3551242,-0.780461 c 0.100623,-0.05815 0.2111061,-0.08697 0.3236117,-0.08697 0.1107359,0 0.2237472,0.02857 0.3215892,0.08684 l 1.3544921,0.780208 c 0.2004876,0.115033 0.3236117,0.328668 0.3236117,0.56 v 3.876135 c 0,0.230068 0.1242619,0.442438 0.3242438,0.561264 l 3.1810026,1.82158 c 0.09986,0.05941 0.224126,0.05941 0.323611,0 0.09809,-0.05689 0.160289,-0.164334 0.160289,-0.279368 z m 25.265481,4.320217 c 0,0.05777 -0.03072,0.111241 -0.0809,0.13981 l -1.839025,1.060081 c -0.04993,0.0287 -0.111621,0.0287 -0.161427,0 l -1.839277,-1.060081 c -0.05056,-0.02869 -0.0809,-0.08217 -0.0809,-0.13981 v -2.123197 c 0,-0.0579 0.03034,-0.111241 0.07964,-0.140316 l 1.838013,-1.061851 c 0.05056,-0.02907 0.112506,-0.02907 0.16307,0 l 1.839278,1.061851 c 0.05056,0.02908 0.0809,0.08242 0.0809,0.140316 z M 37.763214,0.04095711 c -0.10037,-0.05587359 -0.222483,-0.05435666 -0.321589,0.0034131 -0.0986,0.05814899 -0.15953,0.16433409 -0.15953,0.27936795 V 8.5404424 c 0,0.080903 -0.04298,0.1554854 -0.113012,0.1959368 -0.06952,0.040451 -0.156117,0.040451 -0.226275,0 L 35.601589,7.9638826 c -0.199729,-0.1155395 -0.445724,-0.1155395 -0.646212,0 L 29.59935,11.055007 c -0.200109,0.115034 -0.323612,0.328668 -0.323612,0.558736 v 6.184018 c 0,0.231332 0.123503,0.443702 0.323612,0.56 l 5.356027,3.093273 c 0.199982,0.115034 0.44623,0.115034 0.646844,0 l 5.356027,-3.094537 c 0.199729,-0.116298 0.323612,-0.328669 0.323612,-0.56 V 2.3844876 c 0,-0.2346185 -0.127675,-0.4504018 -0.332461,-0.5650564 z M 55.598898,13.587648 c 0.198971,-0.11554 0.321463,-0.328921 0.321463,-0.558989 v -1.498727 c 0,-0.230573 -0.122618,-0.443322 -0.321968,-0.559368 L 50.276497,7.8810835 c -0.200994,-0.116298 -0.447495,-0.116298 -0.648488,0 l -5.354763,3.0907445 c -0.200993,0.116298 -0.323612,0.328669 -0.323612,0.56 v 6.18149 c 0,0.232596 0.125147,0.447495 0.32614,0.562528 l 5.320632,3.032596 c 0.195937,0.112506 0.436118,0.11377 0.634583,0.0038 l 3.21842,-1.788714 c 0.101128,-0.05688 0.165598,-0.164334 0.165598,-0.280632 0,-0.116298 -0.06194,-0.225011 -0.16307,-0.281896 l -5.38763,-3.092009 c -0.101129,-0.05688 -0.16307,-0.164334 -0.16307,-0.279368 v -1.939142 c 0,-0.115792 0.06068,-0.222483 0.161806,-0.280126 l 1.676208,-0.967043 c 0.09986,-0.05815 0.222483,-0.05815 0.322347,0 l 1.677472,0.967043 c 0.09986,0.05688 0.161806,0.164334 0.161806,0.279368 v 1.524514 c 0,0.115034 0.06194,0.222483 0.161806,0.280632 0.09986,0.05688 0.223747,0.05688 0.323611,-0.0013 z"
           id="path11"
           fill="#333333" /><path
           d="m 49.873878,13.29842 c 0.03792,-0.02238 0.08545,-0.02238 0.123883,0 l 1.02772,0.592867 c 0.03843,0.02225 0.06194,0.0632 0.06194,0.107449 v 1.186998 c 0,0.04424 -0.02351,0.0852 -0.06194,0.107449 l -1.02772,0.592867 c -0.03843,0.02237 -0.08596,0.02237 -0.123883,0 L 48.84679,15.293183 c -0.03919,-0.02225 -0.0632,-0.06321 -0.0632,-0.107449 v -1.186998 c 0,-0.04424 0.02275,-0.0852 0.06194,-0.107449 z"
           id="path12"
           fill="#689f63" /><g
           id="nd-gr-nodejs-icon"
           transform="translate(14.5,8.5)"
           fill-rule="nonzero"><path
             d="M 5.8932001,0.08968833 0.33584982,3.2973445 C 0.1280346,3.4170902 -2.0895104e-5,3.6386926 0,3.8785388 v 6.4197762 c -5.7090558e-5,0.239856 0.12800812,0.461475 0.33584982,0.581194 l 5.55778798,3.210137 c 0.2078204,0.119652 0.4636166,0.119652 0.671437,0 l 5.5567672,-3.210137 c 0.207272,-0.120181 0.33491,-0.3416 0.335033,-0.581194 V 3.8785388 C 12.456793,3.6385902 12.328535,3.4169639 12.120529,3.2973445 L 6.5644913,0.08968833 c -0.208308,-0.11958258 -0.464442,-0.11958258 -0.67275,0"
             id="path13"
             fill="url(#linearGradient-1)"
             style="fill:url(#linearGradient-1)" /><path
             d="m 0.13771272,10.70591 c 0.0538748,0.07034 0.12112171,0.129337 0.19787452,0.173599 l 4.76719436,2.753613 0.7940948,0.456407 c 0.1172726,0.06744 0.252134,0.09801 0.3870252,0.08773 0.044651,-0.0037 0.08883,-0.01182 0.1319067,-0.02416 L 12.277089,3.4209358 C 12.231558,3.371987 12.178905,3.3301838 12.120908,3.296936 L 8.4820535,1.1956207 6.5585393,0.08890057 C 6.5039028,0.05785175 6.4453352,0.03429912 6.3844144,0.01887715 Z"
             id="path14"
             fill="url(#linearGradient-2)"
             style="fill:url(#linearGradient-2)" /><path
             d="M 6.1617691,0.00370541 C 6.0672591,0.01324478 5.9758085,0.04253877 5.893346,0.08968833 L 0.35180933,3.2881831 6.3273162,14.171981 c 0.084103,-0.01198 0.1651413,-0.03993 0.2387506,-0.08234 l 5.5573502,-3.210137 c 0.169781,-0.09828 0.288271,-0.265706 0.3245,-0.458507 L 6.3563175,0.01458821 C 6.3115633,0.0056897 6.266044,0.00120422 6.2204137,0.00119623 c -0.018478,0 -0.036957,8.753e-4 -0.055435,0.00262588"
             id="path15"
             fill="url(#linearGradient-3)"
             style="fill:url(#linearGradient-3)" /></g></g></g></g><g
     style="fill:#000000"
     id="g15"
     transform="matrix(1.8065724,0,0,1.8065724,7.5957449,7.5939383)"><path
       d="m 25.658,17.49 c 0.052,1.257 1.082,2.032 2.649,2.032 1.65,0 2.688,-0.812 2.688,-2.107 0,-1.016 -0.586,-1.587 -1.969,-1.903 l -0.784,-0.18 c -0.837,-0.197 -1.181,-0.462 -1.181,-0.916 0,-0.566 0.519,-0.945 1.29,-0.945 0.779,0 1.312,0.382 1.37,1.021 h 1.162 c -0.029,-1.2 -1.021,-2.012 -2.523,-2.012 -1.483,0 -2.537,0.816 -2.537,2.024 0,0.975 0.596,1.578 1.852,1.867 l 0.884,0.207 c 0.86,0.204 1.208,0.487 1.208,0.977 0,0.567 -0.571,0.973 -1.393,0.973 -0.831,0 -1.458,-0.411 -1.535,-1.04 z m -3.726,-3.972 c 1.213,0 1.988,0.962 1.988,2.484 0,1.516 -0.775,2.479 -1.987,2.479 -1.22,0 -1.989,-0.962 -1.989,-2.479 0,-1.521 0.77,-2.484 1.988,-2.484 z m 0,-1.039 c -0.032,-10e-4 -0.07,-0.002 -0.108,-0.002 -1.74,0 -3.15,1.41 -3.15,3.15 0,0.133 0.008,0.263 0.024,0.391 l -0.002,-0.015 c -0.014,0.113 -0.022,0.243 -0.022,0.375 0,1.738 1.409,3.146 3.146,3.146 0.04,0 0.079,-0.001 0.119,-0.002 h -0.006 c 0.032,0.001 0.07,0.002 0.107,0.002 1.737,0 3.144,-1.408 3.144,-3.144 0,-0.133 -0.008,-0.263 -0.024,-0.392 l 0.002,0.015 c 0.014,-0.113 0.023,-0.245 0.023,-0.378 0,-1.739 -1.409,-3.148 -3.148,-3.148 -0.037,0 -0.074,10e-4 -0.11,0.002 z m -3.631,3.707 c -0.087,-1.065 -0.973,-1.896 -2.053,-1.896 -0.059,0 -0.117,0.002 -0.175,0.007 l 0.008,-0.001 c -0.021,-10e-4 -0.045,-10e-4 -0.07,-10e-4 -1.295,0 -2.344,1.05 -2.344,2.344 0,0.093 0.005,0.185 0.016,0.276 l -10e-4,-0.011 c -0.01,0.082 -0.016,0.177 -0.016,0.273 0,1.287 1.043,2.33 2.33,2.33 0.033,0 0.067,-0.001 0.1,-0.002 h -0.005 c 0.056,0.006 0.122,0.009 0.188,0.009 1.064,0 1.936,-0.817 2.026,-1.857 l 0.001,-0.008 h -1.11 c -0.067,0.515 -0.503,0.908 -1.03,0.908 -0.021,0 -0.043,-10e-4 -0.064,-0.002 h 0.003 c -0.746,0 -1.227,-0.604 -1.227,-1.652 0,-1.03 0.476,-1.653 1.218,-1.653 0.013,-10e-4 0.028,-10e-4 0.043,-10e-4 0.541,0 0.988,0.406 1.052,0.931 v 0.005 z m -7.879,3.302 c 0.009,0 0.019,0 0.03,0 0.649,0 1.217,-0.349 1.525,-0.871 l 0.005,-0.008 h 0.022 v 0.799 h 1.135 v -3.449 c 0,-1.005 -0.809,-1.662 -2.049,-1.662 -1.276,0 -2.074,0.671 -2.126,1.606 h 1.091 c 0.094,-0.4 0.447,-0.693 0.869,-0.693 0.042,0 0.083,0.003 0.123,0.008 l -0.005,-10e-4 c 0.58,0 0.935,0.302 0.935,0.827 v 0.359 l -1.322,0.075 c -1.22,0.076 -1.904,0.61 -1.904,1.498 0.008,0.84 0.69,1.517 1.531,1.517 0.05,0 0.099,-0.002 0.147,-0.007 h -0.006 z m 0.355,-0.887 c -0.51,0 -0.85,-0.26 -0.85,-0.671 0,-0.397 0.325,-0.652 0.892,-0.69 l 1.157,-0.071 v 0.384 c -0.034,0.588 -0.519,1.052 -1.112,1.052 -0.031,0 -0.062,-0.001 -0.092,-0.004 h 0.004 z M 1.004,19.408 H 2.18 V 16.343 C 2.178,16.32 2.177,16.294 2.177,16.268 c 0,-0.534 0.432,-0.967 0.966,-0.968 v 0 c 0.018,-0.001 0.04,-0.002 0.062,-0.002 0.458,0 0.829,0.371 0.829,0.829 0,0.027 -10e-4,0.053 -0.004,0.079 V 16.203 19.41 H 5.173 V 16.315 C 5.171,16.292 5.17,16.266 5.17,16.239 5.17,15.72 5.59,15.3 6.109,15.3 c 0.007,0 0.013,0 0.02,0 H 6.128 c 0.018,-0.001 0.039,-0.002 0.06,-0.002 0.467,0 0.845,0.378 0.845,0.845 0,0.042 -0.003,0.083 -0.009,0.124 l 0.001,-0.005 v 3.147 H 8.2 v -3.434 c 0.003,-0.034 0.004,-0.074 0.004,-0.114 0,-0.859 -0.696,-1.555 -1.555,-1.555 -0.029,0 -0.058,0.001 -0.086,0.002 h 0.004 c -0.019,-10e-4 -0.04,-10e-4 -0.062,-10e-4 -0.673,0 -1.249,0.412 -1.492,0.996 L 5.009,15.314 H 4.98 C 4.824,14.729 4.299,14.305 3.675,14.305 c -0.032,0 -0.064,10e-4 -0.096,0.003 h 0.004 c -0.014,0 -0.029,-10e-4 -0.045,-10e-4 -0.631,0 -1.169,0.397 -1.378,0.954 l -0.003,0.01 H 2.133 V 14.402 H 1.005 v 5.007 z"
       id="path1" /></g></svg>
