<?xml version="1.0" encoding="UTF-8" standalone="no"?>
<!-- Uploaded to: SVG Repo, www.svgrepo.com, Generator: SVG Repo Mixer Tools -->

<svg
   width="800"
   height="800"
   viewBox="0 0 73 73"
   version="1.1"
   id="svg15"
   sodipodi:docname="NodeJS_R.svg"
   xml:space="preserve"
   xmlns:inkscape="http://www.inkscape.org/namespaces/inkscape"
   xmlns:sodipodi="http://sodipodi.sourceforge.net/DTD/sodipodi-0.dtd"
   xmlns="http://www.w3.org/2000/svg"
   xmlns:svg="http://www.w3.org/2000/svg"><sodipodi:namedview
     id="namedview15"
     pagecolor="#ffffff"
     bordercolor="#000000"
     borderopacity="0.25"
     inkscape:showpageshadow="2"
     inkscape:pageopacity="0.0"
     inkscape:pagecheckerboard="0"
     inkscape:deskcolor="#d1d1d1" /><title
     id="title1">build-tools/nodejs</title><desc
     id="desc1">Created with Sketch.</desc><defs
     id="defs11"><linearGradient
       x1="9.6652003"
       y1="1.2280669"
       x2="3.6241815"
       y2="12.061319"
       id="linearGradient-1"
       gradientTransform="scale(0.93729409,1.066901)"
       gradientUnits="userSpaceOnUse"><stop
         stop-color="#3E863D"
         offset="30%"
         id="stop1" /><stop
         stop-color="#55934F"
         offset="50%"
         id="stop2" /><stop
         stop-color="#5AAD45"
         offset="80%"
         id="stop3" /></linearGradient><linearGradient
       x1="0.67242621"
       y1="10.519254"
       x2="12.906682"
       y2="2.7584284"
       id="linearGradient-2"
       gradientTransform="scale(0.92589449,1.0800367)"
       gradientUnits="userSpaceOnUse"><stop
         stop-color="#3E863D"
         offset="57%"
         id="stop4" /><stop
         stop-color="#619857"
         offset="72%"
         id="stop5" /><stop
         stop-color="#76AC64"
         offset="100%"
         id="stop6" /></linearGradient><linearGradient
       x1="0.38078645"
       y1="6.5472992"
       x2="13.473202"
       y2="6.5472992"
       id="linearGradient-3"
       gradientTransform="scale(0.92390192,1.082366)"
       gradientUnits="userSpaceOnUse"><stop
         stop-color="#6BBF47"
         offset="16%"
         id="stop7" /><stop
         stop-color="#79B461"
         offset="38%"
         id="stop8" /><stop
         stop-color="#75AC64"
         offset="47%"
         id="stop9" /><stop
         stop-color="#659E5A"
         offset="70%"
         id="stop10" /><stop
         stop-color="#3E863D"
         offset="90%"
         id="stop11" /></linearGradient></defs><g
     id="build-tools/nodejs"
     stroke="none"
     stroke-width="1"
     fill="none"
     fill-rule="evenodd"><g
       id="container"
       transform="translate(2,2)"><rect
         id="mask"
         stroke="#000000"
         stroke-width="2"
         fill="#ffffff"
         fill-rule="nonzero"
         x="-1"
         y="-1"
         width="71"
         height="71"
         rx="14" /><g
         id="Node.js_logo-(1)"
         transform="translate(7,23)"
         style="display:none"><path
           d="m 54.81535,7.9051016 h 0.16939 c 0.139052,0 0.165599,-0.097336 0.165599,-0.1542212 0,-0.1491648 -0.102393,-0.1491648 -0.159278,-0.1491648 H 54.816614 Z M 54.6093,7.4272686 h 0.37544 c 0.12894,0 0.381761,0 0.381761,0.2882167 0,0.2009933 -0.128939,0.2427088 -0.20605,0.267991 0.150429,0.010113 0.160542,0.1087133 0.180768,0.2477652 0.01011,0.087224 0.02655,0.2376524 0.05688,0.2882167 h -0.231332 c -0.0063,-0.050564 -0.04172,-0.3286681 -0.04172,-0.3438374 -0.01517,-0.061941 -0.03666,-0.09228 -0.113769,-0.09228 H 54.820406 V 8.5207224 H 54.6093 Z m -0.451286,0.5435666 c 0,0.4525508 0.365327,0.8191422 0.814085,0.8191422 0.452551,0 0.817878,-0.374176 0.817878,-0.8191422 0,-0.4538149 -0.370383,-0.8140858 -0.819142,-0.8140858 -0.442438,0 -0.814086,0.3552145 -0.814086,0.8128217 z m 1.788713,0.00253 c 0,0.535982 -0.438646,0.9733635 -0.973364,0.9733635 C 54.442438,8.9467269 54,8.5144018 54,7.9733634 54,7.4222122 54.452551,7 54.973363,7 c 0.524605,0 0.9721,0.4234763 0.9721,0.9733634 z"
           id="Shape"
           fill="#689f63"
           fill-rule="nonzero" /><path
           d="m 12.000939,11.446501 c 0,-0.232596 -0.122619,-0.44623 -0.323359,-0.561896 L 6.3233228,7.8039729 C 6.232939,7.7508804 6.131684,7.72307 6.0290384,7.7192777 H 5.9736704 C 5.8710248,7.72307 5.7697697,7.7508804 5.6778691,7.8039729 L 0.32386456,10.884605 C 0.12438826,11.000903 0,11.214537 0,11.447133 l 0.01175621,8.297607 c 0,0.115034 0.05941309,0.222483 0.16054176,0.279368 0.0986004,0.06068 0.22248307,0.06068 0.32108352,0 L 3.6764063,18.201264 C 3.8773996,18.081679 4.0000181,17.87032 4.0000181,17.64 v -3.876388 c 0,-0.231332 0.1226185,-0.444966 0.3229796,-0.56 l 1.3551242,-0.780461 c 0.100623,-0.05815 0.2111061,-0.08697 0.3236117,-0.08697 0.1107359,0 0.2237472,0.02857 0.3215892,0.08684 l 1.3544921,0.780208 c 0.2004876,0.115033 0.3236117,0.328668 0.3236117,0.56 v 3.876135 c 0,0.230068 0.1242619,0.442438 0.3242438,0.561264 l 3.1810026,1.82158 c 0.09986,0.05941 0.224126,0.05941 0.323611,0 0.09809,-0.05689 0.160289,-0.164334 0.160289,-0.279368 z m 25.265481,4.320217 c 0,0.05777 -0.03072,0.111241 -0.0809,0.13981 l -1.839025,1.060081 c -0.04993,0.0287 -0.111621,0.0287 -0.161427,0 l -1.839277,-1.060081 c -0.05056,-0.02869 -0.0809,-0.08217 -0.0809,-0.13981 v -2.123197 c 0,-0.0579 0.03034,-0.111241 0.07964,-0.140316 l 1.838013,-1.061851 c 0.05056,-0.02907 0.112506,-0.02907 0.16307,0 l 1.839278,1.061851 c 0.05056,0.02908 0.0809,0.08242 0.0809,0.140316 z M 37.763214,0.04095711 c -0.10037,-0.05587359 -0.222483,-0.05435666 -0.321589,0.0034131 -0.0986,0.05814899 -0.15953,0.16433409 -0.15953,0.27936795 V 8.5404424 c 0,0.080903 -0.04298,0.1554854 -0.113012,0.1959368 -0.06952,0.040451 -0.156117,0.040451 -0.226275,0 L 35.601589,7.9638826 c -0.199729,-0.1155395 -0.445724,-0.1155395 -0.646212,0 L 29.59935,11.055007 c -0.200109,0.115034 -0.323612,0.328668 -0.323612,0.558736 v 6.184018 c 0,0.231332 0.123503,0.443702 0.323612,0.56 l 5.356027,3.093273 c 0.199982,0.115034 0.44623,0.115034 0.646844,0 l 5.356027,-3.094537 c 0.199729,-0.116298 0.323612,-0.328669 0.323612,-0.56 V 2.3844876 c 0,-0.2346185 -0.127675,-0.4504018 -0.332461,-0.5650564 z M 55.598898,13.587648 c 0.198971,-0.11554 0.321463,-0.328921 0.321463,-0.558989 v -1.498727 c 0,-0.230573 -0.122618,-0.443322 -0.321968,-0.559368 L 50.276497,7.8810835 c -0.200994,-0.116298 -0.447495,-0.116298 -0.648488,0 l -5.354763,3.0907445 c -0.200993,0.116298 -0.323612,0.328669 -0.323612,0.56 v 6.18149 c 0,0.232596 0.125147,0.447495 0.32614,0.562528 l 5.320632,3.032596 c 0.195937,0.112506 0.436118,0.11377 0.634583,0.0038 l 3.21842,-1.788714 c 0.101128,-0.05688 0.165598,-0.164334 0.165598,-0.280632 0,-0.116298 -0.06194,-0.225011 -0.16307,-0.281896 l -5.38763,-3.092009 c -0.101129,-0.05688 -0.16307,-0.164334 -0.16307,-0.279368 v -1.939142 c 0,-0.115792 0.06068,-0.222483 0.161806,-0.280126 l 1.676208,-0.967043 c 0.09986,-0.05815 0.222483,-0.05815 0.322347,0 l 1.677472,0.967043 c 0.09986,0.05688 0.161806,0.164334 0.161806,0.279368 v 1.524514 c 0,0.115034 0.06194,0.222483 0.161806,0.280632 0.09986,0.05688 0.223747,0.05688 0.323611,-0.0013 z"
           id="path11"
           fill="#333333" /><path
           d="m 49.873878,13.29842 c 0.03792,-0.02238 0.08545,-0.02238 0.123883,0 l 1.02772,0.592867 c 0.03843,0.02225 0.06194,0.0632 0.06194,0.107449 v 1.186998 c 0,0.04424 -0.02351,0.0852 -0.06194,0.107449 l -1.02772,0.592867 c -0.03843,0.02237 -0.08596,0.02237 -0.123883,0 L 48.84679,15.293183 c -0.03919,-0.02225 -0.0632,-0.06321 -0.0632,-0.107449 v -1.186998 c 0,-0.04424 0.02275,-0.0852 0.06194,-0.107449 z"
           id="path12"
           fill="#689f63" /><g
           id="nd-gr-nodejs-icon"
           transform="translate(14.5,8.5)"
           fill-rule="nonzero"><path
             d="M 5.8932001,0.08968833 0.33584982,3.2973445 C 0.1280346,3.4170902 -2.0895104e-5,3.6386926 0,3.8785388 v 6.4197762 c -5.7090558e-5,0.239856 0.12800812,0.461475 0.33584982,0.581194 l 5.55778798,3.210137 c 0.2078204,0.119652 0.4636166,0.119652 0.671437,0 l 5.5567672,-3.210137 c 0.207272,-0.120181 0.33491,-0.3416 0.335033,-0.581194 V 3.8785388 C 12.456793,3.6385902 12.328535,3.4169639 12.120529,3.2973445 L 6.5644913,0.08968833 c -0.208308,-0.11958258 -0.464442,-0.11958258 -0.67275,0"
             id="path13"
             fill="url(#linearGradient-1)"
             style="fill:url(#linearGradient-1)" /><path
             d="m 0.13771272,10.70591 c 0.0538748,0.07034 0.12112171,0.129337 0.19787452,0.173599 l 4.76719436,2.753613 0.7940948,0.456407 c 0.1172726,0.06744 0.252134,0.09801 0.3870252,0.08773 0.044651,-0.0037 0.08883,-0.01182 0.1319067,-0.02416 L 12.277089,3.4209358 C 12.231558,3.371987 12.178905,3.3301838 12.120908,3.296936 L 8.4820535,1.1956207 6.5585393,0.08890057 C 6.5039028,0.05785175 6.4453352,0.03429912 6.3844144,0.01887715 Z"
             id="path14"
             fill="url(#linearGradient-2)"
             style="fill:url(#linearGradient-2)" /><path
             d="M 6.1617691,0.00370541 C 6.0672591,0.01324478 5.9758085,0.04253877 5.893346,0.08968833 L 0.35180933,3.2881831 6.3273162,14.171981 c 0.084103,-0.01198 0.1651413,-0.03993 0.2387506,-0.08234 l 5.5573502,-3.210137 c 0.169781,-0.09828 0.288271,-0.265706 0.3245,-0.458507 L 6.3563175,0.01458821 C 6.3115633,0.0056897 6.266044,0.00120422 6.2204137,0.00119623 c -0.018478,0 -0.036957,8.753e-4 -0.055435,0.00262588"
             id="path15"
             fill="url(#linearGradient-3)"
             style="fill:url(#linearGradient-3)" /></g></g></g></g><g
     style="fill:#000000"
     id="g15"
     transform="matrix(4.4667574,0,0,4.4667574,5.2326982,5.2326985)"><path
       d="m 4.833896,6.0787671 0.988423,-0.498571 v 0.96283 l -0.988423,0.498491 v -0.962755 m 0,-1.169006 0.988423,-0.498571 v 0.962755 l -0.988423,0.498571 v -0.962755 m -1.065923,1.134623 0.842308,-0.395402 v 0.842471 l -0.842308,0.403959 v -0.851028 m 0,-1.169091 0.842308,-0.40388 v 0.850948 l -0.842308,0.404039 v -0.851103 m -0.988665,1.813853 0.687717,-0.309427 v -0.636208 l -0.687717,0.335259 v 0.610379 m 0,-1.169094 0.687717,-0.309428 v -0.627494 l -0.687717,0.326622 v 0.610297 m -0.928362,0.154761 0.498491,-0.30087 v 0.532961 l -0.498491,0.283595 v -0.515686 m 0,-1.169091 0.498491,-0.300791 v 0.532881 L 1.850946,5.0129291 V 4.5057211 M 1,5.3824981 1.386764,5.2020711 v 0.378127 L 1,5.7435101 v -0.361012 m 0,-1.169011 0.386764,-0.189144 v 0.378207 L 1,4.5744991 v -0.361012 m 3.833896,5.492921 0.988423,-0.498731 V 10.170506 L 4.833896,10.677635 V 9.7064031 m 0,-1.177755 0.988423,-0.49857 v 0.962754 L 4.833896,9.5000401 V 8.5286531 M 3.767973,9.6720371 4.610281,9.2679181 V 10.119021 L 3.767973,10.514343 V 9.6720341 m 0,-1.169106 0.842308,-0.404119 v 0.851103 l -0.842308,0.40396 V 8.5029241 M 2.779308,10.325246 3.467025,10.007181 V 9.3796861 l -0.687717,0.326703 v 0.6188549 m 0,-1.1776419 0.687717,-0.318065 v -0.627494 l -0.687717,0.326622 v 0.618936 m -0.928362,0.154667 0.498491,-0.30079 v 0.532881 l -0.498491,0.283675 v -0.515766 m 0,-1.169166 0.498491,-0.300711 v 0.524324 L 1.850946,8.6403901 V 8.1331021 M 1,7.8410411 1.386764,7.6518971 v 0.369649 L 1,8.1934151 v -0.352374 m 0,1.177672 0.386764,-0.189143 v 0.36965 L 1,9.3711681 v -0.352455 m 5.037214,-2.063088 v 1.065923 l 1.065923,-0.558713 v -1.023052 l -1.065923,0.515846 m 0,-1.220674 v 1.065923 l 1.065923,-0.550156 v -1.031529 l -1.065923,0.515766 m 0,-1.20349 v 1.065924 l 1.065923,-0.558714 v -1.03153 l -1.065923,0.524324 m 0,-1.220599 v 1.065923 l 1.065923,-0.558713 v -1.022972 l -1.065923,0.515766 m 0,7.3066309 v 1.065923 l 1.065923,-0.558713 v -1.023053 l -1.065923,0.515846 m 0,-1.2206679 V 10.462687 L 7.103137,9.9126911 v -1.03153 l -1.065923,0.515687 m 0,-1.237796 v 1.057366 L 7.103137,8.6661821 V 7.6347271 L 6.037214,8.1590511 M 4.833896,7.2994431 5.822319,6.8008721 v 0.962755 l -0.988423,0.507208 v -0.971388 m 0,-3.618919 0.988423,-0.498651 v 0.962829 l -0.988423,0.498571 v -0.962754 m 0,7.2463759 0.988423,-0.498491 v 0.962755 L 4.833896,11.889494 V 10.926901 M 3.767973,7.2650561 4.610281,6.8696541 v 0.84239 l -0.842308,0.404039 v -0.851028 m 0,-3.627479 0.842308,-0.395482 v 0.84239 l -0.842308,0.404119 v -0.851028 m 0,7.2464189 0.842308,-0.395402 v 0.842389 l -0.842308,0.40404 V 10.883993 M 2.779308,4.2908251 3.467025,3.9813981 v -0.627495 l -0.687717,0.326622 v 0.610298 m 0,7.2463799 0.687717,-0.309428 V 10.60028 l -0.687717,0.326623 v 0.610298 m 0,-3.6274489 0.687717,-0.309508 v -0.627575 l -0.687717,0.326782 v 0.610298 M 1.850946,6.8954081 2.349437,6.5945371 v 0.532961 l -0.498491,0.283675 v -0.515765 m 0,-3.618921 0.498491,-0.300791 v 0.524324 l -0.498491,0.283595 v -0.507128 m 0,7.2464459 0.498491,-0.30087 v 0.53288 l -0.498491,0.275198 v -0.507208 m 8.231737,-8.4123269 c -0.953072,-0.0054 -1.887891,0.207512 -2.807612,0.607207 v 1.173865 c 0.752384,-0.332743 1.368868,-0.51213 1.908347,-0.546385 v 2.664793 c -0.641754,0.05127 -1.27511,0.247663 -1.908347,0.537712 v 0.833487 c 0.701346,-0.340917 1.334745,-0.494605 1.908347,-0.537374 v 2.544275 C 8.507647,9.5080431 7.857433,9.6875811 7.275071,9.9603631 V 11.15912 C 9.08021,10.110394 10.997163,10.213491 13,11.1848 V 2.8124241 c -0.992846,-0.472825 -1.964212,-0.696439 -2.917317,-0.701818 z m 0.202402,1.096937 c 0.512044,-0.0013 1.027339,0.101735 1.53722,0.318189 v 2.690585 c -0.249288,-0.09453 -0.799376,-0.26649 -1.134556,-0.26649 H 9.931191 v -2.724826 c 0.117698,-0.01129 0.23573,-0.01716 0.353894,-0.01746 z m 0.118153,3.495802 c 0.473084,8.13e-4 0.948408,0.09111 1.419067,0.278091 v 2.64756 c -0.601739,-0.197701 -1.16037,-0.309553 -1.891114,-0.275163 v -2.621767 c 0.15693,-0.01933 0.314352,-0.02899 0.472047,-0.02872 z M 1,6.6031741 1.386764,6.4140301 v 0.378127 L 1,6.9641861 v -0.361012 m 0,-3.610364 0.386764,-0.1977 v 0.378287 L 1,3.3452661 v -0.352455 m 0,7.2464519 0.386764,-0.197701 v 0.378207 L 1,10.591717 v -0.352454"
       id="path1" /></g></svg>
